<?xml version="1.0" encoding="utf-8"?>
<!-- Generator: Adobe Illustrator 16.0.0, SVG Export Plug-In . SVG Version: 6.00 Build 0)  -->
<!DOCTYPE svg PUBLIC "-//W3C//DTD SVG 1.1//EN" "http://www.w3.org/Graphics/SVG/1.1/DTD/svg11.dtd">
<svg version="1.1" id="logo" xmlns="http://www.w3.org/2000/svg" xmlns:xlink="http://www.w3.org/1999/xlink" x="0px" y="0px"
	 width="294px" height="31px" viewBox="0 0 294 31" enable-background="new 0 0 294 31" xml:space="preserve">
<path d="M290.301,26.251h0.549c0.299,0,0.676,0.056,0.676,0.406c0,0.399-0.274,0.456-0.646,0.456h-0.579V26.251z M289.652,29.023
	h0.647v-1.402h0.407l0.799,1.402h0.684l-0.877-1.436c0.484-0.039,0.86-0.273,0.86-0.875c0-0.712-0.461-0.972-1.284-0.972h-1.236
	V29.023L289.652,29.023z M288.611,27.386c0-1.329,0.979-2.293,2.209-2.293c1.212,0,2.205,0.964,2.205,2.293
	c0,1.341-0.993,2.313-2.205,2.313C289.59,29.698,288.611,28.727,288.611,27.386 M287.813,27.386c0,1.787,1.418,2.939,3.008,2.939
	s3.007-1.152,3.007-2.939c0-1.776-1.417-2.919-3.007-2.919C289.229,24.467,287.813,25.607,287.813,27.386"/>
<rect x="283.98" y="0.799" width="1.558" height="29.418"/>
<path d="M277.555,26.02h-0.093c-0.239,0.625-0.587,1.229-1.067,1.785c-0.471,0.568-1.035,1.069-1.707,1.512
	c-0.674,0.438-1.435,0.781-2.283,1.026c-0.857,0.251-1.787,0.373-2.809,0.373c-2.248,0-3.994-0.491-5.221-1.467
	c-1.239-0.976-1.865-2.476-1.865-4.511c0-1.237,0.246-2.247,0.747-3.021c0.493-0.783,1.118-1.408,1.875-1.865
	c0.761-0.441,1.593-0.776,2.509-0.959c0.922-0.193,1.811-0.34,2.664-0.416l2.43-0.213c1.123-0.074,2.009-0.207,2.654-0.386
	c0.646-0.178,1.143-0.427,1.469-0.742c0.328-0.312,0.527-0.717,0.604-1.218c0.093-0.493,0.134-1.109,0.134-1.855
	c0-0.571-0.113-1.108-0.332-1.602c-0.221-0.497-0.563-0.937-1.029-1.315c-0.475-0.391-1.075-0.69-1.81-0.91
	c-0.747-0.22-1.646-0.327-2.722-0.327c-1.896,0-3.432,0.475-4.594,1.399c-1.166,0.939-1.815,2.351-1.92,4.251h-1.558
	c0.103-2.339,0.853-4.09,2.24-5.264c1.394-1.165,3.354-1.741,5.911-1.741c2.559,0,4.417,0.498,5.586,1.498
	c1.161,1.002,1.755,2.319,1.755,3.939v12.315c0,0.309,0,0.605,0.004,0.908c0.026,0.301,0.063,0.574,0.157,0.82
	c0.074,0.247,0.218,0.438,0.416,0.6c0.184,0.151,0.459,0.227,0.813,0.227c0.277,0,0.664-0.049,1.157-0.131v1.319
	c-0.413,0.119-0.838,0.167-1.282,0.167c-0.625,0-1.123-0.082-1.498-0.248c-0.371-0.16-0.652-0.382-0.84-0.652
	c-0.197-0.28-0.33-0.594-0.393-0.975c-0.078-0.367-0.104-0.777-0.104-1.212V26.02L277.555,26.02z M277.555,18.189
	c-0.389,0.461-0.968,0.781-1.754,0.944c-0.781,0.169-1.652,0.285-2.621,0.371l-2.631,0.251c-0.77,0.077-1.541,0.193-2.313,0.342
	c-0.771,0.159-1.471,0.408-2.073,0.771c-0.62,0.353-1.125,0.849-1.505,1.463c-0.391,0.614-0.584,1.419-0.584,2.408
	c0,1.565,0.505,2.722,1.488,3.478c0.979,0.76,2.353,1.141,4.078,1.141c1.789,0,3.195-0.325,4.248-0.975
	c1.041-0.643,1.84-1.39,2.387-2.219c0.547-0.844,0.899-1.654,1.052-2.438c0.151-0.781,0.229-1.309,0.229-1.588v-3.949H277.555z"/>
<path d="M242.001,0.799h1.524v12.729h0.08c0.308-0.82,0.734-1.543,1.287-2.153c0.547-0.629,1.178-1.142,1.901-1.572
	c0.713-0.422,1.479-0.741,2.306-0.944c0.834-0.207,1.678-0.306,2.564-0.306c1.566,0,2.922,0.274,4.063,0.816
	c1.148,0.557,2.104,1.308,2.877,2.262c0.771,0.961,1.338,2.088,1.715,3.364c0.369,1.272,0.55,2.664,0.55,4.142
	c0,2.521-0.337,4.549-1.03,6.075c-0.688,1.532-1.515,2.685-2.479,3.511c-0.959,0.805-1.971,1.342-3.019,1.596
	c-1.044,0.271-1.934,0.395-2.677,0.395c-1.408,0-2.596-0.222-3.574-0.66c-0.98-0.437-1.779-0.947-2.417-1.542
	c-0.637-0.59-1.108-1.178-1.446-1.755c-0.324-0.572-0.535-1.001-0.621-1.277h-0.08v4.739h-1.524V0.799L242.001,0.799z
	 M251.665,29.354c1.401,0,2.59-0.297,3.56-0.908c0.957-0.598,1.737-1.396,2.346-2.37c0.611-0.974,1.049-2.073,1.32-3.296
	c0.274-1.215,0.416-2.438,0.416-3.644c0-1.188-0.156-2.321-0.474-3.417c-0.323-1.109-0.792-2.09-1.449-2.947
	c-0.649-0.868-1.44-1.562-2.394-2.074c-0.951-0.538-2.055-0.792-3.325-0.792c-1.379,0-2.578,0.228-3.591,0.698
	c-1.03,0.468-1.864,1.114-2.516,1.939c-0.666,0.832-1.16,1.801-1.496,2.925c-0.332,1.125-0.492,2.351-0.492,3.668
	c0,1.287,0.144,2.563,0.457,3.782c0.303,1.236,0.772,2.34,1.421,3.283c0.647,0.945,1.479,1.706,2.495,2.285
	C248.961,29.063,250.202,29.354,251.665,29.354"/>
<path d="M220.277,19.627c0-1.511,0.214-2.925,0.636-4.26c0.43-1.334,1.056-2.507,1.881-3.517c0.823-1.025,1.843-1.823,3.048-2.419
	c1.2-0.587,2.594-0.878,4.162-0.878c1.574,0,2.948,0.291,4.154,0.878c1.21,0.596,2.229,1.394,3.055,2.419
	c0.829,1.009,1.438,2.182,1.871,3.517c0.43,1.335,0.645,2.749,0.645,4.26c0,1.518-0.215,2.938-0.645,4.282
	c-0.434,1.348-1.042,2.528-1.871,3.526c-0.824,1.004-1.845,1.799-3.055,2.388c-1.206,0.592-2.58,0.893-4.154,0.893
	c-1.568,0-2.962-0.301-4.162-0.893c-1.205-0.589-2.225-1.384-3.048-2.388c-0.825-0.998-1.451-2.18-1.881-3.526
	C220.491,22.564,220.277,21.145,220.277,19.627 M221.846,19.627c0,1.268,0.172,2.479,0.535,3.652
	c0.357,1.166,0.874,2.197,1.563,3.104c0.693,0.905,1.539,1.628,2.563,2.166c1.016,0.536,2.176,0.806,3.498,0.806
	c1.316,0,2.484-0.27,3.5-0.806c1.018-0.538,1.864-1.261,2.561-2.166c0.682-0.907,1.201-1.938,1.563-3.104
	c0.354-1.174,0.529-2.385,0.529-3.652c0-1.261-0.176-2.471-0.529-3.642c-0.359-1.16-0.881-2.207-1.563-3.115
	c-0.695-0.906-1.543-1.628-2.561-2.163c-1.016-0.535-2.184-0.799-3.5-0.799c-1.322,0-2.482,0.264-3.498,0.799
	c-1.023,0.534-1.869,1.256-2.563,2.163c-0.688,0.908-1.205,1.955-1.563,3.115C222.018,17.156,221.846,18.366,221.846,19.627"/>
<rect x="216.393" y="0.799" width="1.562" height="29.418"/>
<path d="M186.318,15.673c0-2.084,0.315-4.071,0.941-5.953c0.608-1.877,1.514-3.534,2.698-4.966c1.177-1.423,2.618-2.558,4.342-3.397
	c1.716-0.832,3.687-1.255,5.912-1.255c1.511,0,2.946,0.216,4.326,0.656c1.366,0.453,2.601,1.086,3.685,1.942
	c1.077,0.848,2,1.876,2.734,3.09c0.752,1.208,1.238,2.578,1.491,4.116h-1.741c-0.68-2.581-1.92-4.6-3.698-6.056
	c-1.788-1.451-4.045-2.181-6.759-2.181c-1.975,0-3.723,0.386-5.232,1.15c-1.514,0.771-2.769,1.806-3.789,3.092
	c-1.019,1.283-1.785,2.782-2.313,4.472c-0.521,1.684-0.771,3.454-0.771,5.288c0,1.875,0.25,3.636,0.754,5.298
	c0.512,1.662,1.27,3.109,2.267,4.346c1.007,1.233,2.263,2.218,3.769,2.942c1.518,0.735,3.28,1.099,5.317,1.099
	c1.756,0,3.345-0.295,4.738-0.871c1.405-0.576,2.588-1.387,3.567-2.426c0.973-1.051,1.703-2.306,2.196-3.776
	c0.496-1.468,0.705-3.107,0.623-4.913h-10.838v-1.572h12.409v14.419h-1.571v-6.257h-0.084c-0.369,1.064-0.896,2.033-1.604,2.904
	c-0.721,0.857-1.559,1.587-2.539,2.183c-0.973,0.588-2.058,1.05-3.25,1.374c-1.196,0.332-2.438,0.496-3.734,0.496
	c-2.221,0-4.188-0.396-5.908-1.191c-1.72-0.793-3.173-1.877-4.346-3.254c-1.186-1.375-2.072-2.988-2.684-4.846
	C186.626,19.777,186.318,17.793,186.318,15.673"/>
<polygon points="167.334,0.804 167.334,15.5 182.275,0.804 187.354,0.804 174.936,12.687 187.85,30.27 182.896,30.27 
	172.247,15.371 167.334,19.95 167.334,30.27 163.411,30.27 163.411,0.804 "/>
<path d="M146.418,0.803c4.543,0,8.034,1.151,10.48,3.459c2.449,2.319,3.672,5.842,3.672,10.568c0,2.479-0.274,4.67-0.82,6.583
	c-0.557,1.924-1.404,3.526-2.564,4.835c-1.154,1.297-2.629,2.3-4.42,2.986c-1.785,0.692-3.897,1.037-6.347,1.037h-10.108V0.803
	H146.418z M146.751,26.96c0.437,0,0.985-0.021,1.646-0.097c0.658-0.067,1.367-0.236,2.105-0.497
	c0.734-0.263,1.477-0.636,2.204-1.134c0.739-0.496,1.38-1.168,1.963-2.026c0.586-0.851,1.056-1.919,1.429-3.188
	c0.365-1.281,0.553-2.828,0.553-4.647c0-1.763-0.18-3.335-0.518-4.729c-0.343-1.382-0.91-2.566-1.693-3.54
	c-0.785-0.979-1.795-1.725-3.031-2.235c-1.238-0.504-2.766-0.753-4.572-0.753h-6.606V26.96H146.751z"/>
<path d="M126.476,4.971c-1.505-1.042-3.286-1.573-5.35-1.573c-1.771,0-3.266,0.328-4.522,0.993c-1.24,0.66-2.271,1.556-3.088,2.664
	c-0.813,1.111-1.412,2.385-1.797,3.815c-0.386,1.431-0.581,2.916-0.581,4.463c0,1.669,0.194,3.267,0.581,4.759
	c0.385,1.502,0.984,2.809,1.797,3.922c0.817,1.12,1.848,2.01,3.116,2.668c1.264,0.654,2.769,0.992,4.538,0.992
	c1.292,0,2.442-0.221,3.438-0.639c1.01-0.434,1.881-1.024,2.608-1.778c0.727-0.762,1.291-1.661,1.714-2.702
	c0.411-1.053,0.656-2.179,0.74-3.386h3.917c-0.379,3.713-1.66,6.604-3.833,8.665c-2.177,2.063-5.146,3.096-8.915,3.096
	c-2.28,0-4.276-0.392-5.985-1.177c-1.708-0.791-3.114-1.858-4.252-3.245c-1.129-1.369-1.973-2.994-2.536-4.859
	c-0.562-1.883-0.85-3.883-0.85-6.028c0-2.149,0.303-4.162,0.913-6.052c0.603-1.883,1.49-3.518,2.661-4.925
	c1.167-1.405,2.625-2.511,4.371-3.324c1.75-0.805,3.75-1.219,6.007-1.219c1.54,0,2.999,0.21,4.37,0.621
	c1.381,0.417,2.604,1.021,3.673,1.817c1.074,0.801,1.968,1.79,2.687,2.992c0.713,1.193,1.178,2.578,1.402,4.142h-3.918
	C128.935,7.588,127.972,6.012,126.476,4.971"/>
<path fill="#83C331" d="M83.998,0.366c-8.511,0-15.411,6.899-15.411,15.41c0,8.51,6.899,15.412,15.411,15.412
	c8.512,0,15.409-6.901,15.409-15.412C99.407,7.265,92.509,0.366,83.998,0.366"/>
<path d="M49.751,0.102c8.513,0,15.415,6.893,15.415,15.406c0,8.51-6.902,15.406-15.415,15.406c-8.507,0-15.411-6.896-15.411-15.406
	C34.34,6.995,41.244,0.102,49.751,0.102"/>
<path d="M15.511,0.102c8.513,0,15.418,6.893,15.418,15.406c0,8.51-6.905,15.406-15.418,15.406c-8.51,0-15.411-6.896-15.411-15.406
	C0.1,6.995,7.001,0.102,15.511,0.102"/>
</svg>
